<?xml version="1.0" encoding="UTF-8"?>
<svg xmlns="http://www.w3.org/2000/svg" viewBox="0 0 1200 600">
<rect fill="#040608" x="0" y="0" width="1200" height="600"/>
<g fill="#18273f">
  <polygon points="112 375 334 153 299 153 112 340 112 375"/>
  <polygon points="901 152 1090 341 1090 375 867 152 901 152"/>
  <polygon points="623 310 775 462 790 462 623 295 623 310"/>
  <polygon points="578 309 425 461 410 461 577 294 578 309"/>
  <polygon points="340 318 308 318 499 127 500 159 340 318"/>
  <polygon points="861 318 893 318 702 127 701 159 861 318"/>
</g>
<g fill="#0a1a2a" stroke="#2a3a4a" stroke-width="2px">
  <polygon points="1 147 93 55 93 21 113 1 1 1 1 147"/>
  <polygon points="1200 147 1108 55 1108 21 1087 1 1200 1 1200 147"/>
  <polygon points="69 600 107 562 107 495 284 318 340 318 500 159 500 113 463 76 463 39 501 1 701 1 738 39 738 76 701 113 701 156 863 318 916 318 1095 496 1095 561 1134 600 1077 600 1014 537 973 537 772 337 699 337 601 239 503 336 427 336 226 536 186 536 123 600 69 600"/>
</g>
<g fill="#2a3a4a" stroke="#3e4e5e" stroke-width="2px">
  <polygon points="721 1 749 30 749 67 835 152 901 152 1090 341 1090 397 1200 506 1200 169 1084 53 1084 22 1063 2 721 1"/>
  <polygon points="1 508 112 397 112 340 299 154 367 154 450 71 450 30 480 1 139 1 117 23 117 55 2 170 1 508"/>
  <polygon points="254 600 393 461 425 461 578 309 578 282 600 260 623 283 623 310 775 462 808 462 946 600 254 600"/>
</g>
<g fill="#18273f" stroke="#3e4e5e" stroke-width="2px">
  <polygon points="29 600 86 543 86 492 194 385 194 367 335 225 360 225 477 109 457 89 71 475 71 506 1 576 1 600 29 600"/>
  <polygon points="1170 600 1113 543 1113 492 1006 385 1006 367 864 225 839 225 723 109 742 89 1128 475 1128 506 1198 576 1198 600 1170 600"/>
</g>
<g fill="none" stroke="#3e4e5e" stroke-width="2px">
  <polyline points="1011 600 796 385 723 385 634 296 634 283 601 250 566 283 566 296 477 385 404 385 189 600"/>
  <polyline points="55 600 97 558 97 495 338 255 356 255 488 123 488 112 456 81 456 35 490 1"/>
  <polyline points="1144 600 1102 558 1102 495 862 255 844 255 712 123 712 112 744 81 744 35 709 1"/>
  <polyline points="1 157 105 52 105 22 126 2"/>
  <polyline points="1200 157 1095 52 1095 22 1075 2"/>
</g>
<g fill="none" stroke="#000" stroke-width="2px">
  <polyline points="282 570 380 570 404 547 796 547 819 570 917 570"/>
  <polyline points="691 378 691 489 650 531 550 531 509 489 509 378"/>
  <polyline points="1 397 250 148 250 98 347 1"/>
  <polyline points="1200 397 950 148 950 98 854 1"/>
  <polyline points="107 552 267 392 304 392 400 296 413 296 464 246 509 246 509 331"/>
  <polyline points="1093 552 933 392 896 392 800 296 787 296 736 246 691 246 691 331"/>
  <polyline points="548 292 548 192 578 162 578 90 548 60 548 1"/>
  <polyline points="653 292 653 192 623 162 623 90 653 60 653 1"/>
</g>
<g fill="none" stroke="#000" stroke-width="6px">
  <line x1="429" y1="547" x2="509" y2="547"/>
  <line x1="691" y1="547" x2="771" y2="547"/>
  <line x1="509" y1="411" x2="509" y2="467"/>
  <line x1="691" y1="411" x2="691" y2="467"/>
  <line x1="167" y1="232" x2="209" y2="189"/>
  <line x1="1032" y1="229" x2="990" y2="187"/>
  <line x1="578" y1="106" x2="578" y2="152"/>
  <line x1="623" y1="106" x2="623" y2="152"/>
  <line x1="163" y1="495" x2="232" y2="427"/>
  <line x1="1037" y1="495" x2="968" y2="427"/>
</g>
</svg>