<svg xmlns="http://www.w3.org/2000/svg" viewBox="0 0 32 32" stroke-width="2">
  <path fill="none" stroke="#fff" d="m23.32,25.68c3,3.11,8.45.27,7.6-3.97l-2.05-10.56c-.65-3.56-3.75-6.15-7.38-6.16h-11.01c-3.63,0-6.74,2.61-7.37,6.19l-2.05,10.51v.02c-.82,4.24,4.61,7.06,7.61,3.96l5-5.68h4.62l5.01,5.68h.02Z"/>
  <rect fill="#fff" x="18.15" y="11.8" width="7.18" height="2.4"/>
  <polygon fill="#fff" points="13.83 11.8 11.44 11.8 11.44 9.41 9.04 9.41 9.04 11.8 6.65 11.8 6.65 14.2 9.04 14.2 9.04 16.59 11.44 16.59 11.44 14.2 13.83 14.2 13.83 11.8"/>
</svg>