<svg width="24" height="24" viewBox="0 0 24 24" fill="none" xmlns="http://www.w3.org/2000/svg">
<path d="M16.2164 14.4723C17.6425 12.6206 18.2828 10.2741 17.9968 7.94707C17.7328 5.88404 16.7759 3.97455 15.2857 2.53669C13.7955 1.09884 11.8619 0.219431 9.80704 0.0449637C7.45397 -0.193192 5.10348 0.521323 3.27267 2.03132C1.44185 3.54132 0.280669 5.72311 0.0445746 8.09673C-0.19152 10.4703 0.516811 12.8414 2.01374 14.6882C3.51067 16.535 5.67358 17.7063 8.02665 17.9444C10.343 18.2336 12.6808 17.6119 14.5547 16.2084L21.973 23.6315C22.0787 23.7477 22.2071 23.8404 22.3501 23.9038C22.4931 23.9672 22.6476 24 22.8039 24C22.9601 24 23.1147 23.9672 23.2577 23.9038C23.4007 23.8404 23.5291 23.7477 23.6347 23.6315C23.7499 23.525 23.8418 23.3955 23.9047 23.2512C23.9675 23.1069 24 22.951 24 22.7934C24 22.6358 23.9675 22.48 23.9047 22.3357C23.8418 22.1914 23.7499 22.0619 23.6347 21.9553L16.2164 14.4723ZM10.2225 15.5499C9.19191 15.7196 8.13602 15.6376 7.14342 15.3106C6.15081 14.9835 5.25046 14.4211 4.51793 13.6704C3.7854 12.9198 3.24207 12.0028 2.93355 10.9965C2.62502 9.99022 2.56031 8.92395 2.74483 7.8872C2.96271 6.55367 3.58939 5.32254 4.53679 4.36687C5.48419 3.4112 6.70466 2.77905 8.02665 2.55927C9.05816 2.3669 10.1206 2.43045 11.1223 2.74446C12.124 3.05846 13.035 3.6135 13.7768 4.36172C14.5185 5.10994 15.0688 6.0289 15.3801 7.03938C15.6913 8.04986 15.7543 9.12154 15.5636 10.1621C15.3286 11.5043 14.6901 12.7411 13.7346 13.7049C12.7792 14.6687 11.5531 15.3128 10.2225 15.5499Z" fill="white"/>
</svg>
